<svg xmlns="http://www.w3.org/2000/svg" viewBox="0 0 252.44 56.38"><defs><style>.cls-1{fill:#0091da;}.cls-2{fill:#1bc1d5;}.cls-3{fill:#78be20;}.cls-4{fill:#1d428a;}</style></defs><title>Asset 2</title><g id="Layer_2" data-name="Layer 2"><g id="Layer_1-2" data-name="Layer 1"><path d="M93.72,18.66l-7.4,17.18H83.55l-7.4-17.18H79l6,14,6-13.95Z"/><path d="M96.9,18.66h2.52l6,11.23,6-11.23H114V35.84h-2.53V23.61l-6,11.23-6-11.23V35.84H96.9Z"/><path d="M117,22.91h2.52l3,9.63,3.2-9.63h2.1l3.2,9.63,3-9.63h2.53L132,35.84h-2.27l-3.07-9.6-3.13,9.6h-2.28Z"/><path d="M147.7,24.09A5.44,5.44,0,0,1,149.12,28v7.83H146.7V34.09a4.69,4.69,0,0,1-1.88,1.51,5.74,5.74,0,0,1-2.43.54A5.16,5.16,0,0,1,139,35a3.71,3.71,0,0,1-1.35-3,3.78,3.78,0,0,1,.69-2.23,4.49,4.49,0,0,1,1.87-1.53,6.25,6.25,0,0,1,2.61-.54,12.3,12.3,0,0,1,3.91.7V28a3.69,3.69,0,0,0-.78-2.39,3.1,3.1,0,0,0-2.55-1,8.15,8.15,0,0,0-3.62,1.08l-.93-1.83a11.09,11.09,0,0,1,4.9-1.3A5.26,5.26,0,0,1,147.7,24.09Zm-2.41,9.46a2.84,2.84,0,0,0,1.41-1.76V30.06a12.24,12.24,0,0,0-3.53-.5,3.73,3.73,0,0,0-2.25.68,2,2,0,0,0-.92,1.7,2,2,0,0,0,.81,1.64,3.4,3.4,0,0,0,2.08.61A4.64,4.64,0,0,0,145.29,33.55Z"/><path d="M157.23,23.37a5.64,5.64,0,0,1,2.94-.76v2.15a5.74,5.74,0,0,0-2.5.53,3.93,3.93,0,0,0-1.7,1.49,4,4,0,0,0-.6,2.18v6.88h-2.48V22.91h2.48v2.53A4.65,4.65,0,0,1,157.23,23.37Z"/><path d="M170.83,33.66a4.53,4.53,0,0,0,1.69-1L174,34.14a5.84,5.84,0,0,1-2.31,1.45,8.51,8.51,0,0,1-2.92.55A6.67,6.67,0,0,1,163,32.83a7.16,7.16,0,0,1,0-6.93,6.42,6.42,0,0,1,5.62-3.29,6,6,0,0,1,3.36.93,5.77,5.77,0,0,1,2.15,2.62,10.05,10.05,0,0,1,.74,4H164.49A4.58,4.58,0,0,0,165.86,33a3.92,3.92,0,0,0,2.84,1.09A5.7,5.7,0,0,0,170.83,33.66Zm-4.9-8a4.36,4.36,0,0,0-1.41,2.68h7.9a4.49,4.49,0,0,0-1.19-2.65,3.44,3.44,0,0,0-2.61-1A4,4,0,0,0,165.93,25.66Z"/><path d="M188.87,21h-5.65V18.66H197V21h-5.63V35.84h-2.52Z"/><path d="M208.59,24.09A5.4,5.4,0,0,1,210,28v7.83h-2.43V34.09a4.59,4.59,0,0,1-1.87,1.51,5.74,5.74,0,0,1-2.43.54A5.16,5.16,0,0,1,199.87,35a3.71,3.71,0,0,1-1.35-3,3.78,3.78,0,0,1,.69-2.23,4.43,4.43,0,0,1,1.87-1.53,6.22,6.22,0,0,1,2.61-.54,12.19,12.19,0,0,1,3.9.7V28a3.69,3.69,0,0,0-.77-2.39,3.1,3.1,0,0,0-2.55-1,8.23,8.23,0,0,0-3.63,1.08l-.92-1.83a11.09,11.09,0,0,1,4.9-1.3A5.23,5.23,0,0,1,208.59,24.09Zm-2.4,9.46a2.83,2.83,0,0,0,1.4-1.76V30.06a12.17,12.17,0,0,0-3.52-.5,3.73,3.73,0,0,0-2.25.68,2,2,0,0,0-.93,1.7,1.94,1.94,0,0,0,.82,1.64,3.4,3.4,0,0,0,2.08.61A4.64,4.64,0,0,0,206.19,33.55Z"/><path d="M222.89,23.24A4.29,4.29,0,0,1,224.61,25a5.52,5.52,0,0,1,.61,2.61v8.23h-2.4V28a3.36,3.36,0,0,0-.83-2.36,2.75,2.75,0,0,0-2.15-.92,3.91,3.91,0,0,0-1.8.42,3.29,3.29,0,0,0-1.3,1.11,2.67,2.67,0,0,0-.47,1.52v8h-2.48V22.91h2.48v1.9A4.21,4.21,0,0,1,218,23.23a5,5,0,0,1,2.44-.62A4.91,4.91,0,0,1,222.89,23.24Z"/><path d="M227.82,34l7.25-8.85H228V22.91h10.37l0,1.85-7.25,8.85h7.32v2.23H227.82Z"/><path d="M252.44,22.91V35.84H250V34a4.36,4.36,0,0,1-1.7,1.56,5.14,5.14,0,0,1-2.43.59,5,5,0,0,1-2.5-.63,4.33,4.33,0,0,1-1.71-1.76,5.41,5.41,0,0,1-.61-2.61V22.91h2.42v7.8a3.41,3.41,0,0,0,.83,2.37,2.78,2.78,0,0,0,2.15.91,3.92,3.92,0,0,0,1.78-.41,3.29,3.29,0,0,0,1.29-1.12,2.61,2.61,0,0,0,.48-1.52v-8Z"/><path class="cls-1" d="M37.69,50.43H20.05a2.26,2.26,0,0,1-1.78-.84L7.2,35.71a2.24,2.24,0,0,1-.41-2l4.28-17a2.72,2.72,0,0,1,1.15-1.46L27.88,7.41a2.22,2.22,0,0,1,2,0l15.87,7.83A2.41,2.41,0,0,1,47,16.81l4.07,17a2.29,2.29,0,0,1-.41,2L39.47,49.59A2.61,2.61,0,0,1,37.69,50.43Zm-17.54-2.3H37.59L48.76,34.25l-4.07-17L28.92,9.4,13.26,17.23l-4.18,17Z"/><polygon class="cls-2" points="49.07 12.01 51.05 10.34 30.07 0 30.07 2.61 49.07 12.01"/><polygon class="cls-3" points="3.03 36.44 0.52 36.96 15.14 55.34 16.29 53.04 3.03 36.44"/><polygon class="cls-2" points="27.77 2.61 27.77 0 7 10.34 8.98 12.01 27.77 2.61"/><polygon class="cls-4" points="7.62 13.99 5.53 12.21 0 34.66 2.61 34.14 7.62 13.99"/><polygon class="cls-4" points="55.23 34.14 57.84 34.66 52.52 12.21 50.53 13.89 55.23 34.14"/><polygon class="cls-3" points="54.71 36.44 41.34 53.04 42.49 55.34 57.32 36.96 54.71 36.44"/><polygon class="cls-2" points="18.38 53.98 17.23 56.38 40.41 56.38 39.26 53.98 18.38 53.98"/></g></g></svg>