<?xml version="1.0" encoding="utf-8"?>
<!-- Generator: Adobe Illustrator 24.0.3, SVG Export Plug-In . SVG Version: 6.00 Build 0)  -->
<svg version="1.1" id="Layer_1" xmlns="http://www.w3.org/2000/svg" xmlns:xlink="http://www.w3.org/1999/xlink" x="0px" y="0px"
	 viewBox="0 0 252.4 56.4" style="enable-background:new 0 0 252.4 56.4;" xml:space="preserve">
<style type="text/css">
	.st0{fill:#FFFFFF;}
	.st1{fill:#0091DA;}
	.st2{fill:#1BC1D5;}
	.st3{fill:#78BE20;}
	.st4{fill:#1D428A;}
</style>
<title>Asset 2</title>
<g id="Layer_2_1_">
	<g id="Layer_1-2">
		<path class="st0" d="M93.7,18.7l-7.4,17.2h-2.8l-7.4-17.2H79l6,14l6-14L93.7,18.7z"/>
		<path class="st0" d="M96.9,18.7h2.5l6,11.2l6-11.2h2.6v17.2h-2.5V23.6l-6,11.2l-6-11.2v12.2h-2.6V18.7z"/>
		<path class="st0" d="M117,22.9h2.5l3,9.6l3.2-9.6h2.1l3.2,9.6l3-9.6h2.5L132,35.8h-2.3l-3.1-9.6l-3.1,9.6h-2.3L117,22.9z"/>
		<path class="st0" d="M147.7,24.1c1,1.1,1.5,2.5,1.4,3.9v7.8h-2.4v-1.7c-0.5,0.7-1.1,1.2-1.9,1.5c-0.8,0.4-1.6,0.5-2.4,0.5
			c-1.2,0-2.4-0.4-3.4-1.1c-0.9-0.7-1.4-1.8-1.4-3c0-0.8,0.2-1.6,0.7-2.2c0.5-0.7,1.1-1.2,1.9-1.5c0.8-0.4,1.7-0.5,2.6-0.5
			c1.3,0,2.7,0.3,3.9,0.7V28c0-0.9-0.2-1.7-0.8-2.4c-0.6-0.7-1.6-1.1-2.6-1c-1.3,0.1-2.5,0.4-3.6,1.1l-0.9-1.8
			c1.5-0.8,3.2-1.3,4.9-1.3C145.2,22.5,146.7,23,147.7,24.1z M145.3,33.5c0.7-0.4,1.2-1,1.4-1.8v-1.7c-1.1-0.3-2.3-0.5-3.5-0.5
			c-0.8,0-1.6,0.2-2.2,0.7c-0.6,0.4-0.9,1-0.9,1.7c0,0.6,0.3,1.3,0.8,1.6c0.6,0.4,1.3,0.6,2.1,0.6C143.7,34.2,144.6,34,145.3,33.5z"
			/>
		<path class="st0" d="M157.2,23.4c0.9-0.5,1.9-0.8,2.9-0.8v2.1c-0.9,0-1.7,0.2-2.5,0.5c-0.7,0.3-1.3,0.8-1.7,1.5
			c-0.4,0.7-0.6,1.4-0.6,2.2v6.9h-2.5V22.9h2.5v2.5C155.8,24.6,156.4,23.9,157.2,23.4z"/>
		<path class="st0" d="M170.8,33.7c0.6-0.2,1.2-0.5,1.7-1l1.5,1.5c-0.6,0.7-1.4,1.2-2.3,1.5c-0.9,0.4-1.9,0.5-2.9,0.5
			c-2.4,0-4.6-1.3-5.8-3.3c-1.2-2.2-1.2-4.8,0-6.9c1.1-2,3.3-3.3,5.6-3.3c1.2,0,2.4,0.3,3.4,0.9c1,0.6,1.7,1.6,2.1,2.6
			c0.5,1.3,0.8,2.6,0.7,4h-10.4c0.1,1.1,0.6,2.1,1.4,2.8c0.8,0.7,1.8,1.1,2.8,1.1C169.4,34.1,170.2,33.9,170.8,33.7z M165.9,25.7
			c-0.8,0.7-1.3,1.6-1.4,2.7h7.9c-0.1-1-0.5-1.9-1.2-2.6c-0.7-0.7-1.6-1.1-2.6-1C167.6,24.7,166.7,25,165.9,25.7L165.9,25.7z"/>
		<path class="st0" d="M188.9,21h-5.6v-2.3H197V21h-5.6v14.8h-2.5L188.9,21z"/>
		<path class="st0" d="M208.6,24.1c1,1.1,1.5,2.5,1.4,3.9v7.8h-2.4v-1.7c-0.5,0.7-1.1,1.2-1.9,1.5c-0.8,0.4-1.6,0.5-2.4,0.5
			c-1.2,0-2.4-0.4-3.4-1.1c-0.9-0.7-1.4-1.8-1.4-3c0-0.8,0.2-1.6,0.7-2.2c0.5-0.7,1.1-1.2,1.9-1.5c0.8-0.4,1.7-0.6,2.6-0.5
			c1.3,0,2.6,0.3,3.9,0.7V28c0-0.9-0.2-1.7-0.8-2.4c-0.6-0.7-1.6-1.1-2.6-1c-1.3,0.1-2.5,0.4-3.6,1.1l-0.9-1.8
			c1.5-0.8,3.2-1.3,4.9-1.3C206.1,22.5,207.5,23,208.6,24.1z M206.2,33.5c0.7-0.4,1.2-1,1.4-1.8v-1.7c-1.1-0.3-2.3-0.5-3.5-0.5
			c-0.8,0-1.6,0.2-2.2,0.7c-0.6,0.4-0.9,1-0.9,1.7c0,0.6,0.3,1.3,0.8,1.6c0.6,0.4,1.3,0.6,2.1,0.6C204.6,34.2,205.5,34,206.2,33.5z"
			/>
		<path class="st0" d="M222.9,23.2c0.7,0.4,1.3,1,1.7,1.8c0.4,0.8,0.6,1.7,0.6,2.6v8.2h-2.4V28c0-0.9-0.3-1.7-0.8-2.4
			c-0.5-0.6-1.3-0.9-2.1-0.9c-0.6,0-1.2,0.1-1.8,0.4c-0.5,0.2-1,0.6-1.3,1.1c-0.3,0.4-0.5,1-0.5,1.5v8h-2.5V22.9h2.5v1.9
			c0.4-0.7,1-1.2,1.7-1.6c0.7-0.4,1.6-0.6,2.4-0.6C221.3,22.6,222.1,22.8,222.9,23.2z"/>
		<path class="st0" d="M227.8,34l7.2-8.9H228v-2.2h10.4v1.9l-7.2,8.9h7.3v2.2h-10.6V34z"/>
		<path class="st0" d="M252.4,22.9v12.9H250V34c-0.4,0.7-1,1.2-1.7,1.6c-0.7,0.4-1.6,0.6-2.4,0.6c-0.9,0-1.7-0.2-2.5-0.6
			c-0.7-0.4-1.3-1-1.7-1.8c-0.4-0.8-0.6-1.7-0.6-2.6v-8.2h2.4v7.8c0,0.9,0.3,1.7,0.8,2.4c0.5,0.6,1.3,0.9,2.1,0.9
			c0.6,0,1.2-0.1,1.8-0.4c0.5-0.3,1-0.6,1.3-1.1c0.3-0.4,0.5-1,0.5-1.5v-8L252.4,22.9z"/>
		<path class="st1" d="M37.7,50.4H20c-0.7,0-1.3-0.3-1.8-0.8L7.2,35.7c-0.5-0.6-0.6-1.3-0.4-2l4.3-17c0.2-0.6,0.6-1.1,1.1-1.5
			l15.7-7.8c0.6-0.3,1.4-0.3,2,0l15.9,7.8c0.6,0.3,1.1,0.9,1.2,1.6l4.1,17c0.2,0.7,0,1.4-0.4,2L39.5,49.6
			C39,50.1,38.4,50.4,37.7,50.4z M20.1,48.1h17.4l11.2-13.9l-4.1-17L28.9,9.4l-15.7,7.8l-4.2,17L20.1,48.1z"/>
		<polygon class="st2" points="49.1,12 51,10.3 30.1,0 30.1,2.6 		"/>
		<polygon class="st3" points="3,36.4 0.5,37 15.1,55.3 16.3,53 		"/>
		<polygon class="st2" points="27.8,2.6 27.8,0 7,10.3 9,12 		"/>
		<polygon class="st4" points="7.6,14 5.5,12.2 0,34.7 2.6,34.1 		"/>
		<polygon class="st4" points="55.2,34.1 57.8,34.7 52.5,12.2 50.5,13.9 		"/>
		<polygon class="st3" points="54.7,36.4 41.3,53 42.5,55.3 57.3,37 		"/>
		<polygon class="st2" points="18.4,54 17.2,56.4 40.4,56.4 39.3,54 		"/>
	</g>
</g>
</svg>
